# Blender v2.83.4 OBJ File: 'apple.blend'
# www.blender.org
mtllib apple.mtl
o Icosphere
v -0.007713 -0.513960 0.025531
v 0.761274 -0.428664 0.566882
v -0.238722 -0.428665 0.891806
v -0.856760 -0.428661 0.041156
v -0.238722 -0.428665 -0.809493
v 0.761274 -0.428664 -0.484569
v 0.314054 0.465775 0.891806
v -0.685941 0.465775 0.566882
v -0.685941 0.465775 -0.484569
v 0.314054 0.465775 -0.809493
v 0.932093 0.465771 0.041156
v 0.037666 0.704381 0.041156
v -0.156769 -0.656562 0.486643
v 0.431009 -0.656562 0.295659
v 0.300535 -0.507183 0.850168
v 0.888314 -0.507181 0.041156
v 0.431009 -0.656562 -0.322364
v -0.520043 -0.656559 -0.013352
v -0.650523 -0.507181 0.541153
v -0.156769 -0.656562 -0.513348
v -0.650523 -0.507181 -0.458841
v 0.300535 -0.507183 -0.767855
v 0.988724 0.018555 0.350169
v 0.988724 0.018555 -0.267856
v 0.037666 0.018555 1.041156
v 0.625452 0.018555 0.850173
v -0.913392 0.018555 0.350169
v -0.550119 0.018555 0.850173
v -0.550119 0.018555 -0.767860
v -0.913392 0.018555 -0.267856
v 0.625452 0.018555 -0.767860
v 0.037666 0.018555 -0.958844
v 0.725856 0.544291 0.541153
v -0.225203 0.544293 0.850168
v -0.812982 0.544291 0.041156
v -0.225203 0.544293 -0.767855
v 0.725856 0.544291 -0.458841
v 0.200122 0.744239 0.541152
v 0.563396 0.744236 0.041156
v -0.387656 0.744239 0.350168
v -0.387656 0.744239 -0.267855
v 0.200122 0.744239 -0.458839
vt 0.818181 0.000000
vt 0.772726 0.078731
vt 0.863635 0.078731
vt 0.727272 0.157461
vt 0.681818 0.078731
vt 0.636363 0.157461
vt 0.090909 0.000000
vt 0.045454 0.078731
vt 0.136363 0.078731
vt 0.272727 0.000000
vt 0.227273 0.078731
vt 0.318182 0.078731
vt 0.454545 0.000000
vt 0.409090 0.078731
vt 0.500000 0.078731
vt 0.681818 0.236191
vt 0.909090 0.157461
vt 0.818181 0.157461
vt 0.863635 0.236191
vt 0.181818 0.157461
vt 0.090909 0.157461
vt 0.136363 0.236191
vt 0.363636 0.157461
vt 0.272727 0.157461
vt 0.318182 0.236191
vt 0.545454 0.157461
vt 0.454545 0.157461
vt 0.500000 0.236191
vt 0.772726 0.236191
vt 0.954545 0.236191
vt 0.227273 0.236191
vt 0.409090 0.236191
vt 0.590909 0.236191
vt 0.818181 0.314921
vt 0.727272 0.314921
vt 0.772726 0.393651
vt 1.000000 0.314921
vt 0.909091 0.314921
vt 0.954545 0.393651
vt 0.272727 0.314921
vt 0.181818 0.314921
vt 0.227273 0.393651
vt 0.454545 0.314921
vt 0.363636 0.314921
vt 0.409090 0.393651
vt 0.636363 0.314921
vt 0.545454 0.314921
vt 0.590909 0.393651
vt 0.500000 0.393651
vt 0.545454 0.472382
vt 0.318182 0.393651
vt 0.363636 0.472382
vt 0.136363 0.393651
vt 0.181818 0.472382
vt 0.090909 0.314921
vt 0.863635 0.393651
vt 0.909090 0.472382
vt 0.681818 0.393651
vt 0.727272 0.472382
vt 0.045454 0.236191
vt 0.000000 0.157461
vt 0.590909 0.078731
vt 0.636363 0.000000
vn -0.1055 -0.9399 -0.3248
vn 0.4162 -0.8792 0.2319
vn 0.2768 -0.9396 -0.2011
vn 0.2508 -0.9507 0.1822
vn -0.0903 -0.9563 0.2781
vn 0.9050 -0.3304 0.2680
vn 0.0247 -0.3304 0.9435
vn -0.8897 -0.3304 0.3151
vn -0.5746 -0.3304 -0.7488
vn 0.5346 -0.3304 -0.7779
vn 0.8026 -0.1256 0.5831
vn -0.3066 -0.1256 0.9435
vn -0.9921 -0.1256 0.0000
vn -0.3066 -0.1256 -0.9435
vn 0.8026 -0.1256 -0.5831
vn 0.3012 0.7920 0.5311
vn -0.4120 0.7920 0.4506
vn -0.5558 0.7920 -0.2526
vn 0.0685 0.7920 -0.6067
vn 0.5982 0.7920 -0.1224
vn -0.0755 0.9956 0.0548
vn 0.3442 0.9050 -0.2501
vn 0.3012 0.7920 -0.5311
vn 0.0288 0.9956 0.0887
vn -0.1315 0.9050 -0.4046
vn -0.4120 0.7920 -0.4506
vn 0.0933 0.9956 0.0000
vn -0.4254 0.9050 0.0000
vn -0.5558 0.7920 0.2526
vn 0.0288 0.9956 -0.0887
vn -0.1315 0.9050 0.4046
vn 0.0685 0.7920 0.6067
vn -0.0755 0.9956 -0.0548
vn 0.3442 0.9050 0.2501
vn 0.5982 0.7920 0.1224
vn 0.8897 0.3304 -0.3151
vn 0.7947 0.1876 -0.5773
vn 0.5746 0.3304 -0.7488
vn -0.0247 0.3304 -0.9435
vn -0.3035 0.1876 -0.9342
vn -0.5346 0.3304 -0.7779
vn -0.9050 0.3304 -0.2680
vn -0.9822 0.1876 0.0000
vn -0.9050 0.3304 0.2680
vn -0.5346 0.3304 0.7779
vn -0.3035 0.1876 0.9342
vn -0.0247 0.3304 0.9435
vn 0.5746 0.3304 0.7488
vn 0.7947 0.1876 0.5773
vn 0.8897 0.3304 0.3151
vn 0.3066 0.1256 -0.9435
vn 0.3035 -0.1876 -0.9342
vn 0.0247 -0.3304 -0.9435
vn -0.8026 0.1256 -0.5831
vn -0.7947 -0.1876 -0.5773
vn -0.8897 -0.3304 -0.3151
vn -0.8026 0.1256 0.5831
vn -0.7947 -0.1876 0.5773
vn -0.5746 -0.3304 0.7488
vn 0.3066 0.1256 0.9435
vn 0.3035 -0.1876 0.9342
vn 0.5346 -0.3304 0.7779
vn 0.9921 0.1256 0.0000
vn 0.9822 -0.1876 0.0000
vn 0.9050 -0.3304 -0.2680
vn 0.3839 -0.8357 -0.3927
vn 0.1122 -0.9318 -0.3453
vn -0.0704 -0.7999 -0.5960
vn -0.2987 -0.7945 -0.5287
vn -0.3047 -0.9264 -0.2214
vn -0.5691 -0.8153 -0.1067
vn -0.5474 -0.8315 0.0952
vn -0.2647 -0.9450 0.1923
vn -0.2138 -0.8693 0.4457
vn 0.4686 -0.8501 -0.2402
vn 0.3105 -0.9506 0.0000
vn -0.3091 -0.9510 0.0000
vn -0.0909 -0.8757 0.4742
vn 0.0906 -0.9560 0.2789
vn 0.3466 -0.8821 0.3192
usemtl None
s off
f 1/1/1 14/2/1 13/3/1
f 2/4/2 14/5/2 16/6/2
f 1/7/3 13/8/3 18/9/3
f 1/10/4 18/11/4 20/12/4
f 1/13/5 20/14/5 17/15/5
f 2/4/6 16/6/6 23/16/6
f 3/17/7 15/18/7 25/19/7
f 4/20/8 19/21/8 27/22/8
f 5/23/9 21/24/9 29/25/9
f 6/26/10 22/27/10 31/28/10
f 2/4/11 23/16/11 26/29/11
f 3/17/12 25/19/12 28/30/12
f 4/20/13 27/22/13 30/31/13
f 5/23/14 29/25/14 32/32/14
f 6/26/15 31/28/15 24/33/15
f 7/34/16 33/35/16 38/36/16
f 8/37/17 34/38/17 40/39/17
f 9/40/18 35/41/18 41/42/18
f 10/43/19 36/44/19 42/45/19
f 11/46/20 37/47/20 39/48/20
f 39/48/21 42/49/21 12/50/21
f 39/48/22 37/47/22 42/49/22
f 37/47/23 10/43/23 42/49/23
f 42/45/24 41/51/24 12/52/24
f 42/45/25 36/44/25 41/51/25
f 36/44/26 9/40/26 41/51/26
f 41/42/27 40/53/27 12/54/27
f 41/42/28 35/41/28 40/53/28
f 35/41/29 8/55/29 40/53/29
f 40/39/30 38/56/30 12/57/30
f 40/39/31 34/38/31 38/56/31
f 34/38/32 7/34/32 38/56/32
f 38/36/33 39/58/33 12/59/33
f 38/36/34 33/35/34 39/58/34
f 33/35/35 11/46/35 39/58/35
f 24/33/36 37/47/36 11/46/36
f 24/33/37 31/28/37 37/47/37
f 31/28/38 10/43/38 37/47/38
f 32/32/39 36/44/39 10/43/39
f 32/32/40 29/25/40 36/44/40
f 29/25/41 9/40/41 36/44/41
f 30/31/42 35/41/42 9/40/42
f 30/31/43 27/22/43 35/41/43
f 27/22/44 8/55/44 35/41/44
f 28/30/45 34/38/45 8/37/45
f 28/30/46 25/19/46 34/38/46
f 25/19/47 7/34/47 34/38/47
f 26/29/48 33/35/48 7/34/48
f 26/29/49 23/16/49 33/35/49
f 23/16/50 11/46/50 33/35/50
f 31/28/51 32/32/51 10/43/51
f 31/28/52 22/27/52 32/32/52
f 22/27/53 5/23/53 32/32/53
f 29/25/54 30/31/54 9/40/54
f 29/25/55 21/24/55 30/31/55
f 21/24/56 4/20/56 30/31/56
f 27/22/57 28/60/57 8/55/57
f 27/22/58 19/21/58 28/60/58
f 19/21/59 3/61/59 28/60/59
f 25/19/60 26/29/60 7/34/60
f 25/19/61 15/18/61 26/29/61
f 15/18/62 2/4/62 26/29/62
f 23/16/63 24/33/63 11/46/63
f 23/16/64 16/6/64 24/33/64
f 16/6/65 6/26/65 24/33/65
f 17/15/66 22/27/66 6/26/66
f 17/15/67 20/14/67 22/27/67
f 20/14/68 5/23/68 22/27/68
f 20/12/69 21/24/69 5/23/69
f 20/12/70 18/11/70 21/24/70
f 18/11/71 4/20/71 21/24/71
f 18/9/72 19/21/72 4/20/72
f 18/9/73 13/8/73 19/21/73
f 13/8/74 3/61/74 19/21/74
f 16/6/75 17/62/75 6/26/75
f 16/6/76 14/5/76 17/62/76
f 14/5/77 1/63/77 17/62/77
f 13/3/78 15/18/78 3/17/78
f 13/3/79 14/2/79 15/18/79
f 14/2/80 2/4/80 15/18/80
o Cube_Cube.001
v -0.005319 -1.198702 -0.104105
v -0.050721 -0.384108 0.041818
v -0.035154 -1.186140 -0.146855
v -0.098306 -0.399616 -0.071033
v 0.071134 -1.191131 -0.117528
v 0.131587 -0.407245 0.140950
v 0.041299 -1.178569 -0.160278
v 0.072267 -0.396573 0.033211
v -0.021537 -0.928948 0.045046
v -0.079719 -0.902403 -0.033136
v 0.063002 -0.877927 -0.057882
v 0.121185 -0.904471 0.020300
v -0.038799 -0.677115 0.110791
v -0.092764 -0.657484 0.028208
v 0.051306 -0.638199 0.008159
v 0.105271 -0.657830 0.090741
vt 0.547851 0.000000
vt 0.625000 0.000000
vt 0.625000 0.250000
vt 0.547851 0.250000
vt 0.625000 0.500000
vt 0.547851 0.500000
vt 0.625000 0.750000
vt 0.547851 0.750000
vt 0.625000 1.000000
vt 0.547851 1.000000
vt 0.125000 0.500000
vt 0.375000 0.500000
vt 0.375000 0.750000
vt 0.125000 0.750000
vt 0.875000 0.500000
vt 0.875000 0.750000
vt 0.470702 0.750000
vt 0.470702 1.000000
vt 0.375000 1.000000
vt 0.470702 0.500000
vt 0.375000 0.250000
vt 0.470702 0.250000
vt 0.375000 0.000000
vt 0.470702 0.000000
vn -0.8807 0.1126 0.4600
vn 0.2655 -0.1497 -0.9524
vn 0.8590 -0.0042 -0.5120
vn -0.2349 0.0397 0.9712
vn 0.0402 -0.9507 -0.3074
vn 0.0959 0.9931 -0.0682
vn 0.2171 -0.4579 0.8621
vn 0.8211 0.1273 -0.5564
vn -0.2087 0.3320 -0.9199
vn -0.8122 -0.3207 0.4874
vn 0.1863 -0.2474 0.9508
vn 0.8299 0.1939 -0.5232
vn -0.1856 0.2409 -0.9526
vn -0.8301 -0.1852 0.5259
usemtl None
s off
f 55/64/81 44/65/81 46/66/81 56/67/81
f 56/67/82 46/66/82 50/68/82 57/69/82
f 57/69/83 50/68/83 48/70/83 58/71/83
f 58/71/84 48/70/84 44/72/84 55/73/84
f 45/74/85 49/75/85 47/76/85 43/77/85
f 50/68/86 46/78/86 44/79/86 48/70/86
f 47/76/87 54/80/87 51/81/87 43/82/87
f 49/75/88 53/83/88 54/80/88 47/76/88
f 45/84/89 52/85/89 53/83/89 49/75/89
f 43/86/90 51/87/90 52/85/90 45/84/90
f 54/80/91 58/71/91 55/73/91 51/81/91
f 53/83/92 57/69/92 58/71/92 54/80/92
f 52/85/93 56/67/93 57/69/93 53/83/93
f 51/87/94 55/64/94 56/67/94 52/85/94
